<?xml version="1.0" encoding="UTF-8"?>
<svg width="1024" height="1024" viewBox="0 0 1024 1024" fill="none" xmlns="http://www.w3.org/2000/svg">
  <!-- 渐变定义 -->
  <defs>
    <linearGradient id="primaryGradient" x1="0%" y1="0%" x2="100%" y2="100%">
      <stop offset="0%" style="stop-color:#9400D3;stop-opacity:1" />
      <stop offset="50%" style="stop-color:#6C63FF;stop-opacity:1" />
      <stop offset="100%" style="stop-color:#4A00E0;stop-opacity:1" />
    </linearGradient>
    
    <linearGradient id="accentGradient" x1="0%" y1="0%" x2="100%" y2="100%">
      <stop offset="0%" style="stop-color:#FF6B6B;stop-opacity:1" />
      <stop offset="100%" style="stop-color:#FF8E8E;stop-opacity:1" />
    </linearGradient>
    
    <linearGradient id="timeGradient" x1="0%" y1="0%" x2="100%" y2="100%">
      <stop offset="0%" style="stop-color:#43E97B;stop-opacity:1" />
      <stop offset="100%" style="stop-color:#38F9D7;stop-opacity:1" />
    </linearGradient>
    
    <!-- 阴影滤镜 -->
    <filter id="shadow" x="-50%" y="-50%" width="200%" height="200%">
      <feDropShadow dx="0" dy="8" stdDeviation="16" flood-color="#000000" flood-opacity="0.25"/>
    </filter>
    
    <!-- 内阴影 -->
    <filter id="innerShadow" x="-50%" y="-50%" width="200%" height="200%">
      <feFlood flood-color="#000000" flood-opacity="0.2"/>
      <feComposite in="SourceGraphic"/>
      <feGaussianBlur stdDeviation="3"/>
      <feOffset dx="0" dy="2" result="offset"/>
      <feFlood flood-color="#ffffff" flood-opacity="0.8"/>
      <feComposite in="SourceGraphic"/>
    </filter>
  </defs>
  
  <!-- 背景圆形 -->
  <circle cx="512" cy="512" r="480" fill="url(#primaryGradient)" filter="url(#shadow)"/>
  
  <!-- 内层装饰圆环 -->
  <circle cx="512" cy="512" r="420" fill="none" stroke="rgba(255,255,255,0.1)" stroke-width="2"/>
  <circle cx="512" cy="512" r="380" fill="none" stroke="rgba(255,255,255,0.15)" stroke-width="1"/>
  
  <!-- 主要时钟外圈 -->
  <circle cx="512" cy="512" r="320" fill="none" stroke="rgba(255,255,255,0.3)" stroke-width="8"/>
  
  <!-- 时钟刻度 -->
  <g stroke="rgba(255,255,255,0.6)" stroke-width="3">
    <!-- 12点钟位置 -->
    <line x1="512" y1="172" x2="512" y2="200" stroke-width="6"/>
    <!-- 3点钟位置 -->
    <line x1="852" y1="512" x2="824" y2="512" stroke-width="6"/>
    <!-- 6点钟位置 -->
    <line x1="512" y1="852" x2="512" y2="824" stroke-width="6"/>
    <!-- 9点钟位置 -->
    <line x1="172" y1="512" x2="200" y2="512" stroke-width="6"/>
    
    <!-- 其他小刻度 -->
    <g transform="rotate(30 512 512)">
      <line x1="512" y1="172" x2="512" y2="190"/>
    </g>
    <g transform="rotate(60 512 512)">
      <line x1="512" y1="172" x2="512" y2="190"/>
    </g>
    <g transform="rotate(120 512 512)">
      <line x1="512" y1="172" x2="512" y2="190"/>
    </g>
    <g transform="rotate(150 512 512)">
      <line x1="512" y1="172" x2="512" y2="190"/>
    </g>
    <g transform="rotate(210 512 512)">
      <line x1="512" y1="172" x2="512" y2="190"/>
    </g>
    <g transform="rotate(240 512 512)">
      <line x1="512" y1="172" x2="512" y2="190"/>
    </g>
    <g transform="rotate(300 512 512)">
      <line x1="512" y1="172" x2="512" y2="190"/>
    </g>
    <g transform="rotate(330 512 512)">
      <line x1="512" y1="172" x2="512" y2="190"/>
    </g>
  </g>
  
  <!-- 进度环（约75%完成） -->
  <circle cx="512" cy="512" r="280" fill="none" 
          stroke="url(#timeGradient)" 
          stroke-width="24" 
          stroke-linecap="round"
          stroke-dasharray="1318 440"
          stroke-dashoffset="0"
          transform="rotate(-90 512 512)"
          opacity="0.9"/>
  
  <!-- 进度环起点装饰 -->
  <circle cx="512" cy="232" r="16" fill="url(#timeGradient)" filter="url(#shadow)"/>
  
  <!-- 中心装饰 -->
  <circle cx="512" cy="512" r="80" fill="rgba(255,255,255,0.2)" filter="url(#innerShadow)"/>
  <circle cx="512" cy="512" r="60" fill="url(#accentGradient)"/>
  
  <!-- 中心时钟指针 -->
  <!-- 短针（小时） -->
  <line x1="512" y1="512" x2="512" y2="412" 
        stroke="white" 
        stroke-width="8" 
        stroke-linecap="round" 
        transform="rotate(60 512 512)"/>
  
  <!-- 长针（分钟） -->
  <line x1="512" y1="512" x2="512" y2="352" 
        stroke="white" 
        stroke-width="6" 
        stroke-linecap="round" 
        transform="rotate(120 512 512)"/>
  
  <!-- 秒针 -->
  <line x1="512" y1="512" x2="512" y2="332" 
        stroke="url(#accentGradient)" 
        stroke-width="3" 
        stroke-linecap="round" 
        transform="rotate(180 512 512)"/>
  
  <!-- 中心点 -->
  <circle cx="512" cy="512" r="12" fill="white"/>
  <circle cx="512" cy="512" r="8" fill="url(#accentGradient)"/>
  
  <!-- 底部文字区域 -->
  <rect x="312" y="650" width="400" height="80" rx="40" fill="rgba(255,255,255,0.15)" filter="url(#innerShadow)"/>
  
  <!-- 中文字符 "时" -->
  <text x="432" y="705" font-family="Arial, sans-serif" font-size="48" font-weight="bold" fill="white" text-anchor="middle">时</text>
  
  <!-- 中文字符 "间" -->
  <text x="592" y="705" font-family="Arial, sans-serif" font-size="48" font-weight="bold" fill="white" text-anchor="middle">间</text>
  
  <!-- 装饰性光晕效果 -->
  <circle cx="512" cy="512" r="450" fill="none" stroke="rgba(255,255,255,0.1)" stroke-width="1" opacity="0.5"/>
  <circle cx="512" cy="512" r="470" fill="none" stroke="rgba(255,255,255,0.05)" stroke-width="1" opacity="0.3"/>
</svg> 