<?xml version="1.0" encoding="UTF-8"?>
<svg width="512" height="512" viewBox="0 0 512 512" xmlns="http://www.w3.org/2000/svg">
  <defs>
    <!-- 主渐变色 -->
    <linearGradient id="mainGradient" x1="0%" y1="0%" x2="100%" y2="100%">
      <stop offset="0%" style="stop-color:#667eea;stop-opacity:1" />
      <stop offset="100%" style="stop-color:#764ba2;stop-opacity:1" />
    </linearGradient>
    
    <!-- 内圆渐变 -->
    <linearGradient id="innerGradient" x1="0%" y1="0%" x2="100%" y2="100%">
      <stop offset="0%" style="stop-color:#f093fb;stop-opacity:1" />
      <stop offset="100%" style="stop-color:#f5576c;stop-opacity:1" />
    </linearGradient>
    
    <!-- 时钟指针渐变 -->
    <linearGradient id="clockGradient" x1="0%" y1="0%" x2="100%" y2="100%">
      <stop offset="0%" style="stop-color:#4facfe;stop-opacity:1" />
      <stop offset="100%" style="stop-color:#00f2fe;stop-opacity:1" />
    </linearGradient>
    
    <!-- 阴影滤镜 -->
    <filter id="shadow" x="-50%" y="-50%" width="200%" height="200%">
      <feDropShadow dx="8" dy="8" stdDeviation="12" flood-color="#000000" flood-opacity="0.3"/>
    </filter>
    
    <!-- 内发光滤镜 -->
    <filter id="glow" x="-50%" y="-50%" width="200%" height="200%">
      <feGaussianBlur stdDeviation="3" result="coloredBlur"/>
      <feMerge>
        <feMergeNode in="coloredBlur"/>
        <feMergeNode in="SourceGraphic"/>
      </feMerge>
    </filter>
  </defs>
  
  <!-- 背景圆 -->
  <circle cx="256" cy="256" r="240" fill="url(#mainGradient)" filter="url(#shadow)"/>
  
  <!-- 外圆环 -->
  <circle cx="256" cy="256" r="220" fill="none" stroke="rgba(255,255,255,0.3)" stroke-width="8"/>
  
  <!-- 内圆 -->
  <circle cx="256" cy="256" r="180" fill="url(#innerGradient)" opacity="0.8"/>
  
  <!-- 时钟刻度 -->
  <g stroke="rgba(255,255,255,0.8)" stroke-width="3">
    <!-- 12个主要刻度 -->
    <line x1="256" y1="96" x2="256" y2="116" transform="rotate(0 256 256)"/>
    <line x1="256" y1="96" x2="256" y2="116" transform="rotate(30 256 256)"/>
    <line x1="256" y1="96" x2="256" y2="116" transform="rotate(60 256 256)"/>
    <line x1="256" y1="96" x2="256" y2="116" transform="rotate(90 256 256)"/>
    <line x1="256" y1="96" x2="256" y2="116" transform="rotate(120 256 256)"/>
    <line x1="256" y1="96" x2="256" y2="116" transform="rotate(150 256 256)"/>
    <line x1="256" y1="96" x2="256" y2="116" transform="rotate(180 256 256)"/>
    <line x1="256" y1="96" x2="256" y2="116" transform="rotate(210 256 256)"/>
    <line x1="256" y1="96" x2="256" y2="116" transform="rotate(240 256 256)"/>
    <line x1="256" y1="96" x2="256" y2="116" transform="rotate(270 256 256)"/>
    <line x1="256" y1="96" x2="256" y2="116" transform="rotate(300 256 256)"/>
    <line x1="256" y1="96" x2="256" y2="116" transform="rotate(330 256 256)"/>
  </g>
  
  <!-- 时钟指针 -->
  <g fill="url(#clockGradient)" filter="url(#glow)">
    <!-- 时针 -->
    <line x1="256" y1="256" x2="256" y2="180" stroke="url(#clockGradient)" stroke-width="8" stroke-linecap="round" transform="rotate(45 256 256)"/>
    <!-- 分针 -->
    <line x1="256" y1="256" x2="256" y2="140" stroke="url(#clockGradient)" stroke-width="6" stroke-linecap="round" transform="rotate(135 256 256)"/>
  </g>
  
  <!-- 中心圆点 -->
  <circle cx="256" cy="256" r="12" fill="white" filter="url(#glow)"/>
  
  <!-- 进度圆弧 -->
  <path d="M 256 76 A 180 180 0 0 1 436 256" fill="none" stroke="rgba(255,255,255,0.9)" stroke-width="6" stroke-linecap="round"/>
  
  <!-- 装饰性光点 -->
  <circle cx="160" cy="160" r="4" fill="rgba(255,255,255,0.6)" filter="url(#glow)"/>
  <circle cx="352" cy="160" r="3" fill="rgba(255,255,255,0.4)" filter="url(#glow)"/>
  <circle cx="380" cy="300" r="2" fill="rgba(255,255,255,0.5)" filter="url(#glow)"/>
  
  <!-- 高光效果 -->
  <ellipse cx="200" cy="180" rx="60" ry="40" fill="rgba(255,255,255,0.1)" transform="rotate(-30 200 180)"/>
</svg> 